<svg xmlns="http://www.w3.org/2000/svg" fill="none" width="200" height="200" viewBox="0 0 200 200"><path d="M4 173.526c0-7.44 5.958-13.472 13.307-13.472h101.586c7.351 0 13.308 6.031 13.308 13.472 0 7.442-5.957 13.474-13.308 13.474H17.307C9.957 187 4 180.968 4 173.526zm185.039 5.494a13.37 13.37 0 0 1-4.681 5.249 13.236 13.236 0 0 1-7.183 2.138c-4.566 0-8.876-2.437-11.283-6.31L95.989 69.953l-33.87 49.091h42.908c7.351 0 13.309 6.032 13.309 13.472 0 7.44-5.958 13.472-13.309 13.472H36.59c-4.958 0-9.507-2.791-11.799-7.244a13.614 13.614 0 0 1 .889-13.941L85.54 38.04c2.477-3.59 6.513-5.758 10.83-5.758l.338.003c4.437.088 8.541 2.408 10.94 6.189l56.209 88.567V80.88c0-7.442 5.956-13.474 13.307-13.474 7.349 0 13.307 6.032 13.307 13.474v91.776a13.676 13.676 0 0 1-1.432 6.363z" fill-rule="evenodd" fill="#0BCCDC"/><path d="M197 34.63q0-.506-.024-1.011-.025-.506-.074-1.01-.049-.504-.122-1.005-.074-.501-.171-.998-.098-.497-.22-.988-.121-.491-.266-.976-.146-.485-.314-.961-.169-.477-.36-.945-.192-.468-.405-.926-.214-.458-.45-.904-.236-.447-.493-.881-.257-.435-.535-.856t-.576-.828q-.298-.407-.616-.798-.317-.392-.653-.767t-.69-.733q-.353-.358-.724-.698-.37-.34-.757-.662-.387-.321-.789-.623t-.818-.583q-.416-.281-.845-.542-.429-.26-.87-.499t-.893-.455q-.453-.217-.915-.41-.462-.194-.933-.365-.47-.17-.95-.318-.478-.147-.964-.27-.485-.123-.976-.221-.49-.1-.985-.174-.495-.074-.993-.124t-.997-.074q-.5-.025-1-.025t-1 .025q-.5.025-.998.074-.497.05-.992.124-.495.075-.986.174-.49.098-.976.221-.485.123-.964.27-.478.147-.95.318-.47.17-.933.365-.462.193-.914.41-.452.216-.893.455-.442.239-.87.5-.43.26-.846.541t-.817.583q-.402.302-.789.623t-.757.662q-.371.34-.725.698-.353.358-.69.733-.335.375-.653.767-.317.391-.615.798-.298.407-.576.828-.278.421-.535.856-.257.434-.493.88-.236.447-.45.905-.214.458-.405.926-.192.468-.36.945-.169.476-.314.961t-.267.976q-.121.491-.219.988-.097.497-.17.998-.074.5-.123 1.005-.05.504-.074 1.01-.024.505-.024 1.012 0 .506.024 1.012.025.506.074 1.01.049.504.122 1.005.074.501.171.998.098.497.22.988.12.491.266.976.145.484.314.961.168.477.36.945.191.468.405.926.214.458.45.904.236.447.493.881.257.435.535.856.278.42.576.828.298.406.615.798.318.391.654.767.336.375.69.733.353.358.724.698.37.34.757.662.387.321.789.623.401.301.817.583.416.281.845.542.43.26.87.499.442.238.894.455.452.216.914.41.463.194.934.365.47.17.95.317.478.147.963.27.486.123.976.222.49.1.986.173.495.075.992.124.498.05.998.075.5.025 1 .025t1-.025q.5-.025.997-.075.498-.05.993-.124t.985-.173q.491-.099.976-.222.486-.123.964-.27.48-.147.95-.317.471-.17.933-.365.462-.194.915-.41.452-.217.893-.455.441-.24.87-.5.43-.26.845-.541.416-.282.818-.583.402-.302.789-.623.386-.322.757-.662.37-.34.724-.698.354-.358.69-.733.336-.376.653-.767.318-.392.616-.798.298-.407.576-.828.278-.421.535-.856.257-.434.493-.88.236-.447.45-.905.213-.458.405-.926.191-.468.36-.945.168-.477.314-.961.145-.485.266-.976.122-.491.22-.988.097-.497.17-.998.074-.5.123-1.005.05-.504.074-1.01.024-.506.024-1.012z" fill="#FF569C"/></svg>