<svg xmlns="http://www.w3.org/2000/svg" fill="none" width="192" height="192" viewBox="0 0 1024 1024"><defs><linearGradient x1="1" y1=".061" x2=".229" y2="1" id="b"><stop offset="0%" stop-color="#FECAFF"/><stop offset="56.429%" stop-color="#3BE1D6"/><stop offset="100%" stop-color="#2F4CAF"/></linearGradient></defs><path d="M995.386 524.777C988.461 786.77 774.083 995.555 512 995.555 244.94 995.555 28.444 779.06 28.444 512S244.94 28.444 512 28.444c1.445 0 2.89.007 4.336.02l308.553-.02c94.256 0 170.666 76.41 170.666 170.667v325.841l-.169-.175zM711.111 512q0-82.475-58.319-140.793Q594.474 312.888 512 312.888q-82.475 0-140.793 58.32Q312.888 429.524 312.888 512q0 82.474 58.32 140.792 58.317 58.32 140.792 58.32 82.474 0 140.792-58.32 58.32-58.318 58.32-140.792z" fill-rule="evenodd" fill="url(#b)"/><ellipse cx="853.333" cy="824.889" rx="170.667" ry="170.667" fill="#FFA2BC" fill-opacity=".6"/></svg>